<svg enable-background="new 0 0 32 32" height="512" viewBox="0 0 32 32" width="512" xmlns="http://www.w3.org/2000/svg"><g id="BG"><path d="m26 32h-20c-3.314 0-6-2.686-6-6v-20c0-3.314 2.686-6 6-6h20c3.314 0 6 2.686 6 6v20c0 3.314-2.686 6-6 6z" fill="#e3f8fa"/></g><g id="bold"><path d="m12.955 24c-.03 0-.059-.001-.089-.003-.335-.026-.64-.196-.838-.467l-1.395-1.912c-.034-.046-.074-.086-.119-.12l-2.046-1.508c-.27-.199-.439-.505-.465-.839-.025-.334.096-.662.333-.899.353-.353.875-.452 1.331-.252l1.55.677 3.153-3.397c.056-.061.056-.13.051-.165s-.024-.102-.096-.145l-5.424-2.87c-.343-.206-.551-.528-.596-.897-.045-.37.08-.733.343-.996.257-.259.622-.367.98-.287l7.927 1.679c.073.016.145-.007.194-.058l2.843-3.02c.304-.322.816-.511 1.406-.52.603-.011 1.171.181 1.496.507.326.326.515.886.506 1.497-.008.59-.198 1.102-.519 1.405 0 0 0 0-.001 0l-3.028 2.854c-.054.051-.076.125-.06.196l1.824 8.019c.085.359-.021.733-.285.996-.261.261-.621.386-.99.344-.367-.043-.689-.249-.883-.564l-3.033-5.606c-.03-.047-.095-.065-.131-.07-.035-.004-.104-.004-.163.052l-3.39 3.151.677 1.551c.199.456.101.979-.251 1.331-.217.216-.509.336-.812.336zm10.182-12.954h.007z" fill="#26c6da"/></g></svg>