<?xml version="1.0" encoding="UTF-8"?>
<svg width="36px" height="30px" viewBox="0 0 36 30" version="1.1" xmlns="http://www.w3.org/2000/svg" xmlns:xlink="http://www.w3.org/1999/xlink">
    <!-- Generator: Sketch 42 (36781) - http://www.bohemiancoding.com/sketch -->
    <title>Group 4</title>
    <desc>Created with Sketch.</desc>
    <defs>
        <polygon id="path-1" points="35.965875 26.175075 35.965875 0.214672064 3.56417085e-05 0.214672064 3.56417085e-05 26.175075 35.965875 26.175075"></polygon>
    </defs>
    <g id="Welcome" stroke="none" stroke-width="1" fill="none" fill-rule="evenodd">
        <g id="Home" transform="translate(-834.000000, -161.000000)">
            <g id="Group-4" transform="translate(834.000000, 159.000000)">
                <g id="Page-1">
                    <path d="M0.64109589,31 C0.295890411,31 0,31.2692308 0,31.5 C0,31.8076923 0.345205479,32 0.64109589,32 L35.3589041,32 C35.7041096,32 36,31.7307692 36,31.5 L36,31.4615385 C36,31.3846154 36,31.2692308 35.9013699,31.1923077 C35.7534247,31.0769231 35.6054795,31 35.4082192,31 L0.64109589,31 Z" id="Fill-6" fill="#FFFFFF"></path>
                    <g id="Group-10" transform="translate(0.000000, 2.160388)">
                        <mask id="mask-2" fill="white">
                            <use xlink:href="#path-1"></use>
                        </mask>
                        <g id="Clip-9"></g>
                        <path d="M3.2221875,1.312575 C3.1846875,1.312575 3.1846875,1.312575 3.1846875,1.350075 L1.3846875,6.787575 C0.1846875,10.050075 3.3721875,12.562575 5.2096875,13.462575 L13.9471875,16.350075 C14.1346875,16.425075 14.2846875,16.575075 14.3221875,16.762575 C14.3596875,16.950075 14.2846875,17.175075 14.1346875,17.287575 L5.3596875,24.337575 C5.3596875,24.337575 5.3221875,24.375075 5.3596875,24.375075 L5.3971875,24.412575 L8.6596875,25.0497 L22.9096875,18.787575 C23.0221875,18.750075 23.1346875,18.712575 23.2471875,18.750075 L32.4346875,20.700075 C32.8471875,20.775075 33.2221875,20.775075 33.5596875,20.700075 C34.2346875,20.625075 34.5346875,20.287575 34.6846875,20.062575 C35.0596875,19.462575 34.8346875,18.675075 34.7971875,18.562575 C33.8596875,15.937575 31.3471875,15.037575 31.2346875,15.000075 L6.7846875,7.537575 C6.5971875,7.500075 6.4471875,7.350075 6.4096875,7.162575 L4.8346875,1.575075 C4.8346875,1.537575 4.7971875,1.537575 4.7971875,1.537575 L3.2221875,1.312575 Z M8.6221875,26.175075 C8.5471875,26.175075 8.4721875,26.175075 8.3971875,26.137575 L5.1346875,25.500075 C4.6846875,25.425075 4.3471875,25.087575 4.2346875,24.637575 C4.1221875,24.187575 4.2721875,23.737575 4.6471875,23.475075 L12.5971875,17.100075 L4.8721875,14.512575 C4.8346875,14.512575 4.7596875,14.475075 4.7221875,14.437575 C2.5471875,13.425075 -1.1278125,10.387575 0.3346875,6.412575 L2.0971875,1.012575 C2.2846875,0.487575 2.8096875,0.150075 3.3721875,0.225075 L4.9471875,0.450075 C5.3971875,0.525075 5.7721875,0.862575 5.8846875,1.275075 L7.3471875,6.525075 L31.5346875,13.987575 C31.6846875,14.025075 34.6846875,15.112575 35.8096875,18.225075 C35.8846875,18.450075 36.2221875,19.612575 35.5846875,20.662575 C35.3221875,21.112575 34.7596875,21.675075 33.6721875,21.825075 C33.2596875,21.900075 32.7721875,21.862575 32.2471875,21.825075 L32.1346875,21.825075 L23.1346875,19.912575 L9.1096875,26.100075 C8.9971875,26.137575 8.9221875,26.175075 8.8096875,26.175075 L8.6221875,26.175075 Z" id="Fill-8" fill="#FFFFFF" mask="url(#mask-2)"></path>
                    </g>
                    <path d="M21.0345,12.5853875 C20.847,12.5853875 20.6595,12.4728875 20.547,12.3228875 L16.422,5.4603875 C16.347,5.3478875 16.2345,5.2353875 16.0845,5.1978875 L13.047,4.1478875 C12.822375,4.0728875 12.5595,4.1103875 12.4095,4.2978875 C12.222,4.4478875 12.147,4.7103875 12.222,4.9353875 L13.347,9.2478875 C13.422,9.5478875 13.2345,9.8478875 12.9345,9.9228875 C12.634875,9.9978875 12.3345,9.8103875 12.259875,9.5103875 L11.134875,5.1978875 C10.9845,4.5603875 11.172,3.8853875 11.6595,3.4728875 C12.147,3.0228875 12.822375,2.8728875 13.422,3.0978875 L16.4595,4.1478875 C16.8345,4.2978875 17.172,4.5603875 17.397,4.8978875 L21.5595,11.7228875 C21.709875,11.9853875 21.634875,12.3228875 21.372,12.4728875 C21.222,12.5478875 21.147375,12.5853875 21.0345,12.5853875" id="Fill-11" fill="#FFFFFF"></path>
                </g>
            </g>
        </g>
    </g>
</svg>