<?xml version="1.0" encoding="UTF-8"?>
<svg width="36px" height="32px" viewBox="0 0 36 32" version="1.1" xmlns="http://www.w3.org/2000/svg" xmlns:xlink="http://www.w3.org/1999/xlink">
    <!-- Generator: Sketch 42 (36781) - http://www.bohemiancoding.com/sketch -->
    <title>Home</title>
    <desc>Created with Sketch.</desc>
    <defs>
        <polygon id="path-1" points="0.238098533 0.222680412 12.5350162 0.222680412 12.5350162 6.75460206 0.238098533 6.75460206"></polygon>
    </defs>
    <g id="Welcome" stroke="none" stroke-width="1" fill="none" fill-rule="evenodd">
        <g id="Home" transform="translate(-612.000000, -159.000000)">
            <g id="Group-2" transform="translate(612.000000, 159.000000)">
                <g id="Page-1">
                    <g id="Group-3" transform="translate(0.000000, 3.890722)" fill="#FFFFFF">
                        <path d="M17.3970557,11.9212746 C17.5455093,11.9212746 17.6568495,11.9587629 17.7681897,12.0712277 C17.9166433,12.2211809 17.9908701,12.4086223 17.9166433,12.633552 L15.4300454,22.7179007 L18.1764371,21.3683224 L25.0424165,8.77225867 C25.1166433,8.65979381 25.1912412,8.58481724 25.3022103,8.54732896 L33.0960247,4.79850047 C33.9128907,4.31115276 34.3578804,3.82380506 34.3578804,3.26148079 C34.3949938,2.54920337 33.6898392,2.06185567 33.6156124,1.9868791 C32.8362309,1.4995314 31.9826227,1.19962512 30.9805608,1.16213683 C29.8671588,1.12464855 29.0881485,1.38706654 29.0506639,1.38706654 L7.1166433,9.55951265 C6.93107629,9.63448922 6.74550928,9.59700094 6.59705567,9.48453608 L2.36612784,6.26054358 L1.10427216,7.01030928 L2.81148866,11.9962512 C3.36818969,13.7956888 4.81561237,14.7703843 7.1537567,14.8828491 C8.30427216,14.9578257 9.23210722,14.7703843 9.26922062,14.732896 L17.2114887,11.9587629 C17.2857155,11.9212746 17.3599423,11.9212746 17.3970557,11.9212746 M15.4671588,23.8050609 L15.392932,23.8050609 C15.1702515,23.8050609 14.9475711,23.6925961 14.7620041,23.5426429 C14.4279835,23.2802249 14.2795299,22.8303655 14.3908701,22.4179944 L16.6176742,13.3458294 L9.64035464,15.7825679 C9.60324124,15.7825679 9.56612784,15.8200562 9.49190103,15.8200562 C9.38056082,15.8575445 8.37849897,16.0449859 7.1166433,15.9700094 C4.29602474,15.8200562 2.44035464,14.5829428 1.7723134,12.3336457 L0.0650969072,7.34770384 C-0.120470103,6.82286785 0.102210309,6.26054358 0.584684536,5.99812559 L1.84654021,5.28584817 C2.21767423,5.06091846 2.70014845,5.09840675 3.03416907,5.36082474 L7.04241649,8.39737582 L28.7908701,0.299906279 C28.8650969,0.262417994 29.8304165,-0.0374882849 31.1293856,0.0374882849 C32.2795299,0.112464855 33.3561897,0.449859419 34.2840247,1.04967198 C34.506334,1.19962512 35.5455093,1.9868791 35.5083959,3.29896907 C35.4712825,4.23617619 34.8407258,5.06091846 33.6898392,5.77319588 C33.6527258,5.77319588 33.6156124,5.81068416 33.6156124,5.81068416 L25.9702515,9.4470478 L19.178499,21.8931584 C19.0671588,22.0805998 18.8815918,22.2680412 18.6960247,22.3430178 L15.949633,23.6925961 C15.8011794,23.7675726 15.6527258,23.8050609 15.4671588,23.8050609" id="Fill-1"></path>
                    </g>
                    <g id="Group-6" transform="translate(7.051546, 3.148454)">
                        <mask id="mask-2" fill="white">
                            <use xlink:href="#path-1"></use>
                        </mask>
                        <g id="Clip-5"></g>
                        <path d="M4.55578144,6.75460206 C4.44444124,6.75460206 4.33310103,6.71748866 4.22176082,6.64326186 L0.918668041,4.26800412 C0.436193814,3.8968701 0.1764,3.30305567 0.250626804,2.70924124 C0.324853608,2.1154268 0.733101031,1.59583918 1.32691546,1.37315876 L4.11042062,0.333983505 C4.48155464,0.185529897 4.88980206,0.185529897 5.22382268,0.333983505 L12.1640289,2.74635464 C12.4609361,2.85769485 12.6093897,3.15460206 12.4980495,3.45150928 C12.3870804,3.74841649 12.0898021,3.8968701 11.7928948,3.7855299 L4.85268866,1.37315876 C4.74134845,1.33604536 4.59289485,1.33604536 4.48155464,1.37315876 L1.69804948,2.41233402 C1.51248247,2.48656082 1.36402887,2.67212784 1.32691546,2.85769485 C1.28980206,3.04326186 1.40114227,3.26594227 1.54959588,3.37728247 L4.85268866,5.75254021 C5.11248247,5.93810722 5.14959588,6.27212784 4.96402887,6.53192165 C4.88980206,6.68037526 4.74134845,6.75460206 4.55578144,6.75460206" id="Fill-4" fill="#FFFFFF" mask="url(#mask-2)"></path>
                    </g>
                    <path d="M0.593406593,31 C0.247252747,31 0,31.25 0,31.5 C0,31.7857143 0.346153846,32 0.593406593,32 L35.4060989,32 C35.7527473,32 36,31.7503571 36,31.5 L36,31.4642857 C36,31.3571429 35.9505495,31.2857143 35.8516484,31.1785714 C35.7032967,31.0714286 35.5549451,31 35.3571429,31 L0.593406593,31 Z" id="Fill-12" fill="#FFFFFF"></path>
                </g>
            </g>
        </g>
    </g>
</svg>