<?xml version="1.0" standalone="no"?><svg xmlns="http://www.w3.org/2000/svg" viewBox="0 0 1440 320"><path fill="#f3f4f5" fill-opacity="1" d="M0,96L15,85.3C30,75,60,53,90,42.7C120,32,150,32,180,64C210,96,240,160,270,181.3C300,203,330,181,360,181.3C390,181,420,203,450,186.7C480,171,510,117,540,106.7C570,96,600,128,630,138.7C660,149,690,139,720,160C750,181,780,235,810,250.7C840,267,870,245,900,202.7C930,160,960,96,990,80C1020,64,1050,96,1080,101.3C1110,107,1140,85,1170,90.7C1200,96,1230,128,1260,144C1290,160,1320,160,1350,138.7C1380,117,1410,75,1425,53.3L1440,32L1440,0L1425,0C1410,0,1380,0,1350,0C1320,0,1290,0,1260,0C1230,0,1200,0,1170,0C1140,0,1110,0,1080,0C1050,0,1020,0,990,0C960,0,930,0,900,0C870,0,840,0,810,0C780,0,750,0,720,0C690,0,660,0,630,0C600,0,570,0,540,0C510,0,480,0,450,0C420,0,390,0,360,0C330,0,300,0,270,0C240,0,210,0,180,0C150,0,120,0,90,0C60,0,30,0,15,0L0,0Z"></path></svg>